<svg xmlns="http://www.w3.org/2000/svg" xmlns:xlink="http://www.w3.org/1999/xlink" width="500" zoomAndPan="magnify" viewBox="0 0 375 374.999991" height="500" preserveAspectRatio="xMidYMid meet" version="1.2"><defs><clipPath id="ca4bb78fa6"><path d="M 163.351562 176.101562 L 169.453125 176.101562 L 169.453125 193.050781 L 163.351562 193.050781 Z M 163.351562 176.101562 "/></clipPath><clipPath id="8663ba0b14"><path d="M 0.351562 0.101562 L 6.453125 0.101562 L 6.453125 17.050781 L 0.351562 17.050781 Z M 0.351562 0.101562 "/></clipPath><clipPath id="e31043ad9b"><rect x="0" width="7" y="0" height="18"/></clipPath><clipPath id="b91d234c4a"><path d="M 165.441406 185.574219 L 182.390625 185.574219 L 182.390625 191.679688 L 165.441406 191.679688 Z M 165.441406 185.574219 "/></clipPath><clipPath id="a430d766c5"><path d="M 0.441406 0.574219 L 17.390625 0.574219 L 17.390625 6.679688 L 0.441406 6.679688 Z M 0.441406 0.574219 "/></clipPath><clipPath id="d1bf2f914c"><rect x="0" width="18" y="0" height="7"/></clipPath><clipPath id="50c9df2cbe"><path d="M 0.226562 0 L 368.773438 0 L 368.773438 367.578125 L 0.226562 367.578125 Z M 0.226562 0 "/></clipPath><clipPath id="b217436bef"><path d="M 184.5 -0.972656 C 82.726562 -0.972656 0.226562 81.53125 0.226562 183.300781 C 0.226562 285.074219 82.726562 367.578125 184.5 367.578125 C 286.273438 367.578125 368.773438 285.074219 368.773438 183.300781 C 368.773438 81.53125 286.273438 -0.972656 184.5 -0.972656 Z M 184.5 -0.972656 "/></clipPath><clipPath id="6f88964966"><path d="M 0.226562 0 L 368.773438 0 L 368.773438 367.578125 L 0.226562 367.578125 Z M 0.226562 0 "/></clipPath><clipPath id="8eddfca785"><path d="M 184.5 -0.972656 C 82.726562 -0.972656 0.226562 81.53125 0.226562 183.300781 C 0.226562 285.074219 82.726562 367.578125 184.5 367.578125 C 286.273438 367.578125 368.773438 285.074219 368.773438 183.300781 C 368.773438 81.53125 286.273438 -0.972656 184.5 -0.972656 Z M 184.5 -0.972656 "/></clipPath><clipPath id="2572e0b494"><rect x="0" width="369" y="0" height="368"/></clipPath><clipPath id="624011027d"><rect x="0" width="219" y="0" height="311"/></clipPath><clipPath id="c6f3c489a5"><rect x="0" width="369" y="0" height="368"/></clipPath></defs><g id="8a76eb6951"><g clip-rule="nonzero" clip-path="url(#ca4bb78fa6)"><g transform="matrix(1,0,0,1,163,176)"><g clip-path="url(#e31043ad9b)"><g clip-rule="nonzero" clip-path="url(#8663ba0b14)"><path style=" stroke:none;fill-rule:nonzero;fill:#ffffff;fill-opacity:1;" d="M 0.351562 0.101562 L 6.453125 0.101562 L 6.453125 17.054688 L 0.351562 17.054688 Z M 0.351562 0.101562 "/></g></g></g></g><g clip-rule="nonzero" clip-path="url(#b91d234c4a)"><g transform="matrix(1,0,0,1,165,185)"><g clip-path="url(#d1bf2f914c)"><g clip-rule="nonzero" clip-path="url(#a430d766c5)"><path style=" stroke:none;fill-rule:nonzero;fill:#ffffff;fill-opacity:1;" d="M 17.390625 0.574219 L 17.390625 6.679688 L 0.4375 6.679688 L 0.4375 0.574219 Z M 17.390625 0.574219 "/></g></g></g></g><g transform="matrix(1,0,0,1,3,0)"><g clip-path="url(#c6f3c489a5)"><g clip-rule="nonzero" clip-path="url(#50c9df2cbe)"><g clip-rule="nonzero" clip-path="url(#b217436bef)"><g transform="matrix(1,0,0,1,-0.000000000000000444,0)"><g id="79c7ad8f7a" clip-path="url(#2572e0b494)"><g clip-rule="nonzero" clip-path="url(#6f88964966)"><g clip-rule="nonzero" clip-path="url(#8eddfca785)"><path style=" stroke:none;fill-rule:nonzero;fill:#000000;fill-opacity:1;" d="M 0.226562 -0.972656 L 368.773438 -0.972656 L 368.773438 367.578125 L 0.226562 367.578125 Z M 0.226562 -0.972656 "/></g></g></g></g></g></g><g transform="matrix(1,0,0,1,76,47)"><g id="86fa8635bb" clip-path="url(#624011027d)"><g style="fill:#ffffff;fill-opacity:1;"><g transform="translate(0.734023, 232.089383)"><path style="stroke:none" d="M 91.78125 -166.515625 C 94.0625 -159.492188 95.769531 -154.066406 96.90625 -150.234375 C 98.039062 -146.410156 98.96875 -143.257812 99.6875 -140.78125 C 100.414062 -138.300781 101.242188 -135.457031 102.171875 -132.25 C 103.109375 -129.050781 104.398438 -124.347656 106.046875 -118.140625 L 107.609375 -111.640625 C 107.804688 -112.671875 108.0625 -113.753906 108.375 -114.890625 C 108.6875 -116.023438 108.945312 -117.109375 109.15625 -118.140625 C 110.8125 -124.347656 112.101562 -129.050781 113.03125 -132.25 C 113.957031 -135.457031 114.832031 -138.300781 115.65625 -140.78125 C 116.488281 -143.257812 117.472656 -146.410156 118.609375 -150.234375 C 119.742188 -154.066406 121.347656 -159.492188 123.421875 -166.515625 C 127.554688 -179.953125 133.132812 -189.71875 140.15625 -195.8125 C 147.1875 -201.914062 155.765625 -205.847656 165.890625 -207.609375 C 176.023438 -209.367188 187.503906 -210.25 200.328125 -210.25 L 208.390625 -210.25 L 208.390625 0 L 140.46875 0 L 140.46875 -5.890625 C 140.46875 -16.847656 141.445312 -25.789062 143.40625 -32.71875 C 145.375 -39.644531 147.960938 -45.484375 151.171875 -50.234375 C 154.378906 -54.992188 158 -59.539062 162.03125 -63.875 C 166.0625 -68.21875 170.09375 -73.234375 174.125 -78.921875 C 178.15625 -84.609375 181.976562 -91.84375 185.59375 -100.625 C 189.207031 -109.40625 192.253906 -120.515625 194.734375 -133.953125 C 197.210938 -147.390625 198.867188 -164.140625 199.703125 -184.203125 C 198.253906 -179.441406 197.007812 -175.351562 195.96875 -171.9375 C 194.9375 -168.53125 193.851562 -165.117188 192.71875 -161.703125 C 191.582031 -158.296875 190.34375 -154.210938 189 -149.453125 C 187.65625 -144.703125 185.847656 -138.609375 183.578125 -131.171875 C 181.097656 -122.691406 177.582031 -115.816406 173.03125 -110.546875 C 168.476562 -105.273438 163.515625 -100.984375 158.140625 -97.671875 C 152.765625 -94.367188 147.335938 -91.320312 141.859375 -88.53125 C 136.390625 -85.738281 131.378906 -82.582031 126.828125 -79.0625 C 122.273438 -75.550781 118.601562 -71.109375 115.8125 -65.734375 C 113.03125 -60.359375 111.640625 -53.332031 111.640625 -44.65625 L 103.875 -44.65625 C 103.875 -53.332031 102.476562 -60.359375 99.6875 -65.734375 C 96.90625 -71.109375 93.238281 -75.550781 88.6875 -79.0625 C 84.132812 -82.582031 79.117188 -85.738281 73.640625 -88.53125 C 68.171875 -91.320312 62.75 -94.367188 57.375 -97.671875 C 52 -100.984375 47.085938 -105.273438 42.640625 -110.546875 C 38.191406 -115.816406 34.625 -122.691406 31.9375 -131.171875 C 29.664062 -138.816406 27.804688 -145.015625 26.359375 -149.765625 C 24.910156 -154.523438 23.617188 -158.609375 22.484375 -162.015625 C 21.347656 -165.429688 20.257812 -168.894531 19.21875 -172.40625 C 18.1875 -175.925781 16.84375 -180.164062 15.1875 -185.125 C 16.019531 -164.863281 17.675781 -147.960938 20.15625 -134.421875 C 22.632812 -120.878906 25.734375 -109.710938 29.453125 -100.921875 C 33.179688 -92.140625 37.0625 -84.90625 41.09375 -79.21875 C 45.125 -73.539062 49.15625 -68.476562 53.1875 -64.03125 C 57.21875 -59.59375 60.882812 -54.992188 64.1875 -50.234375 C 67.5 -45.484375 70.132812 -39.644531 72.09375 -32.71875 C 74.0625 -25.789062 75.046875 -16.847656 75.046875 -5.890625 L 75.046875 0 L 7.125 0 L 7.125 -210.25 C 17.875 -210.25 27.742188 -209.9375 36.734375 -209.3125 C 45.734375 -208.695312 53.796875 -207.09375 60.921875 -204.5 C 68.054688 -201.914062 74.207031 -197.625 79.375 -191.625 C 84.550781 -185.632812 88.6875 -177.265625 91.78125 -166.515625 Z M 91.78125 -166.515625 "/></g></g></g></g></g></g></g></svg>